<svg width="13" height="13" viewBox="0 0 13 13" fill="none" xmlns="http://www.w3.org/2000/svg">
<path d="M0.292771 11.2929C-0.0977531 11.6834 -0.0977531 12.3166 0.292771 12.7071C0.683295 13.0976 1.31646 13.0976 1.70698 12.7071L0.292771 11.2929ZM12.9999 1C12.9999 0.447716 12.5522 4.77922e-07 11.9999 4.77922e-07L2.99988 4.77922e-07C2.44759 4.77922e-07 1.99988 0.447716 1.99988 1C1.99988 1.55229 2.44759 2 2.99988 2H10.9999V10C10.9999 10.5523 11.4476 11 11.9999 11C12.5522 11 12.9999 10.5523 12.9999 10L12.9999 1ZM1.70698 12.7071L12.707 1.70711L11.2928 0.292894L0.292771 11.2929L1.70698 12.7071Z" fill="#AEAEAE"/>
</svg>
