<svg width="14" height="14" viewBox="0 0 14 14" fill="none" xmlns="http://www.w3.org/2000/svg">
<path d="M1.53033 0.46967C1.23744 0.176777 0.762563 0.176777 0.46967 0.46967C0.176777 0.762563 0.176777 1.23744 0.46967 1.53033L1.53033 0.46967ZM12.3137 13.0637C12.7279 13.0637 13.0637 12.7279 13.0637 12.3137L13.0637 5.56371C13.0637 5.14949 12.7279 4.81371 12.3137 4.81371C11.8995 4.81371 11.5637 5.14949 11.5637 5.56371V11.5637H5.56371C5.14949 11.5637 4.81371 11.8995 4.81371 12.3137C4.81371 12.7279 5.14949 13.0637 5.56371 13.0637L12.3137 13.0637ZM0.46967 1.53033L11.7834 12.844L12.844 11.7834L1.53033 0.46967L0.46967 1.53033Z" fill="white"/>
</svg>
