<svg width="60" height="60" viewBox="0 0 60 60" fill="none" xmlns="http://www.w3.org/2000/svg">
<path d="M51.7194 49.119C46.4169 55.1381 38.652 58.9363 30 58.9363C21.3479 58.9363 13.583 55.1381 8.28052 49.119C9.40719 42.1215 13.8327 36.2283 19.9106 33.0858C21.1916 34.2977 22.6613 35.2599 24.2854 35.9481C26.0982 36.7155 28.0207 37.1032 30.002 37.1032C31.9833 37.1032 33.9058 36.7155 35.7186 35.9481C37.3426 35.262 38.8124 34.2997 40.0933 33.0858C46.1713 36.2283 50.5968 42.1215 51.7235 49.119H51.7194Z" fill="#20BBFE"/>
<path d="M41.2748 22.4198C41.2748 28.646 36.2261 33.6947 30 33.6947C23.7738 33.6947 18.7251 28.646 18.7251 22.4198C18.7251 16.1937 23.7738 11.145 30 11.145C36.2261 11.145 41.2748 16.1937 41.2748 22.4198Z" fill="#20BBFE"/>
<path d="M57.6431 18.3232C56.1328 14.7503 53.9687 11.5408 51.214 8.78603C48.4592 6.03126 45.2497 3.86723 41.6768 2.35688C37.9781 0.793747 34.0499 0 30 0C25.9501 0 22.0199 0.793747 18.3232 2.35688C14.7503 3.86723 11.5408 6.03126 8.78604 8.78603C6.03127 11.5408 3.86724 14.7503 2.35689 18.3232C0.793757 22.0219 0 25.9501 0 30C0 34.0499 0.793757 37.9801 2.35689 41.6768C3.86724 45.2497 6.03127 48.4592 8.78604 51.214C11.5408 53.9687 14.7503 56.1328 18.3232 57.6431C22.0219 59.2063 25.9501 60 30 60C34.0499 60 37.9801 59.2063 41.6768 57.6431C45.2497 56.1328 48.4592 53.9687 51.214 51.214C53.9687 48.4592 56.1328 45.2497 57.6431 41.6768C59.2063 37.9781 60 34.0499 60 30C60 25.9501 59.2063 22.0199 57.6431 18.3232ZM51.4576 47.7649C46.3418 53.9342 38.6216 57.8705 30 57.8705C21.3784 57.8705 13.6582 53.9342 8.54244 47.7649C4.5392 42.9375 2.12951 36.7458 2.12951 30C2.12951 14.6326 14.6326 2.12952 30 2.12952C45.3674 2.12952 57.8705 14.6326 57.8705 30C57.8705 36.7458 55.4608 42.9375 51.4576 47.7649Z" fill="#20BBFE"/>
</svg>
