<svg width="22" height="25" viewBox="0 0 22 25" fill="none" xmlns="http://www.w3.org/2000/svg">
<path d="M20.6956 10.6908C20.6956 16.0414 15.7308 20.8311 13.0874 23.002C12.1385 23.7813 10.8116 23.7813 9.86265 23.002C7.2193 20.8311 2.25446 16.0414 2.25446 10.6908C2.25446 8.20439 3.22591 5.81982 4.9551 4.06167C6.6843 2.30352 9.02959 1.3158 11.475 1.3158C13.9205 1.3158 16.2658 2.30352 17.995 4.06167C19.7242 5.81982 20.6956 8.20439 20.6956 10.6908Z" stroke="#19BAFF" stroke-width="1.8" stroke-linecap="round" stroke-linejoin="round"/>
<path d="M11.475 13.8158C13.1725 13.8158 14.5485 12.4167 14.5485 10.6908C14.5485 8.96491 13.1725 7.5658 11.475 7.5658C9.77756 7.5658 8.40149 8.96491 8.40149 10.6908C8.40149 12.4167 9.77756 13.8158 11.475 13.8158Z" stroke="#19BAFF" stroke-width="1.8" stroke-linecap="round" stroke-linejoin="round"/>
</svg>
