<svg width="36" height="36" viewBox="0 0 36 36" fill="none" xmlns="http://www.w3.org/2000/svg">
<g clip-path="url(#clip0_1_581)">
<path fill-rule="evenodd" clip-rule="evenodd" d="M17.95 24.11C21.28 24.11 23.97 21.38 23.97 18C23.97 14.62 21.27 11.89 17.95 11.89C14.63 11.89 11.93 14.62 11.93 18C11.93 21.38 14.63 24.11 17.95 24.11ZM18 0C27.94 0 36 8.06 36 18C36 27.94 27.94 36 18 36C8.06 36 0 27.94 0 18C0 8.06 8.06 0 18 0ZM18 1.98C26.86 1.98 34.05 9.15 34.05 18C34.05 26.85 26.87 34.02 18 34.02C9.13 34.02 1.95 26.85 1.95 18C1.95 9.15 9.14 1.98 18 1.98ZM26.45 12.66V23.35C26.45 25.12 25.02 26.56 23.28 26.56H12.71C10.97 26.56 9.54 25.11 9.54 23.35V12.66C9.54 10.89 10.97 9.45 12.71 9.45H23.28C25.02 9.45 26.45 10.9 26.45 12.66ZM22.39 12.07C22.39 12.72 22.91 13.24 23.55 13.24C24.19 13.24 24.71 12.72 24.71 12.07C24.71 11.42 24.19 10.9 23.55 10.9C22.91 10.9 22.39 11.42 22.39 12.07ZM22.18 18C22.18 20.37 20.28 22.3 17.94 22.3C15.6 22.3 13.7 20.38 13.7 18C13.7 15.62 15.6 13.7 17.94 13.7C20.28 13.7 22.18 15.62 22.18 18Z" fill="white"/>
</g>
<defs>
<clipPath id="clip0_1_581">
<rect width="36" height="36" fill="white"/>
</clipPath>
</defs>
</svg>
