<svg width="153" height="69" viewBox="0 0 153 69" fill="none" xmlns="http://www.w3.org/2000/svg">
<path d="M75.9345 4.11873C76.5759 4.15286 77.1883 4.18529 78.014 4.10679C81.1341 3.80645 81.8454 2.44978 84.0204 2.65115C84.4384 2.6904 86.0914 2.84398 86.9068 4.08801C87.5243 5.03171 87.3401 6.11875 87.2958 6.40544C87.0791 7.82865 86.0283 8.64606 83.6673 10.4276C78.6912 14.1819 78.3552 14.3185 77.7632 14.3645C75.8611 14.5164 74.4555 13.5403 72.1048 11.9038C68.3859 9.31501 66.8608 7.5778 67.185 5.99758C67.4579 4.66481 68.9949 3.65627 70.247 3.37299C71.8693 3.0061 72.6438 3.94637 75.9345 4.11873Z" fill="#20BBFE"/>
<path d="M87.9748 9.54396C107.804 2.24528 129.111 -1.23768 150.213 0.397144C144.948 0.120692 139.674 0.14117 134.418 0.450045C131.881 0.600217 129.08 0.852779 126.555 1.14459C124.029 1.45347 121.25 1.83231 118.749 2.28112C108.382 4.07464 98.2391 7.0064 88.4575 10.8221C87.6336 11.1225 87.1014 9.90915 87.9748 9.54396Z" fill="#57595E"/>
<path d="M95.218 13.957C114.807 12.5508 134.802 15.1788 153 22.6942C134.721 15.6378 114.768 13.4655 95.3272 15.317C94.4316 15.3768 94.2951 14.0576 95.218 13.957Z" fill="#57595E"/>
<path d="M92.6762 19.7302C105.157 20.9196 117.577 24.7984 127.765 32.2456C129.211 33.2968 130.608 34.4162 131.96 35.5835C130.569 34.4606 129.141 33.3889 127.666 32.3855C120.301 27.3735 111.839 24.1039 103.115 22.4332C99.6294 21.7592 96.1016 21.3291 92.5619 21.0902C91.6646 21.0049 91.7499 19.6755 92.6762 19.7302Z" fill="#57595E"/>
<path d="M64.5426 10.8207C49.8804 5.08857 34.3278 1.38206 18.5841 0.450313C13.3282 0.141437 8.05358 0.12096 2.78918 0.397412C13.2975 -0.384163 23.9406 0.0168631 34.3619 1.60732C44.8122 3.18412 55.0868 5.9111 65.0253 9.54422C65.8476 9.86675 65.4348 11.1261 64.5426 10.8207Z" fill="#57595E"/>
<path d="M57.6729 15.317C38.2342 13.4655 18.2787 15.6361 0 22.6942C18.2002 15.1788 38.1933 12.5508 57.7821 13.957C58.6777 14.0423 58.5975 15.3699 57.6729 15.317Z" fill="#57595E"/>
<path d="M60.4365 21.0918C49.819 21.7795 39.2202 24.3665 29.8873 29.5833C26.7706 31.3171 23.8126 33.3342 21.0422 35.5833C22.3933 34.4161 23.7904 33.2966 25.237 32.2454C32.4973 26.9604 40.9278 23.3973 49.6757 21.4314C53.183 20.6379 56.7449 20.0867 60.3256 19.73C60.7009 19.6925 61.0352 19.9672 61.0728 20.3426C61.1103 20.7266 60.8203 21.0679 60.4365 21.0918Z" fill="#57595E"/>
<path d="M78.3364 20.1698C77.6199 25.0146 74.8188 29.7825 69.2627 28.9702C67.6933 28.7586 66.1938 28.1904 64.783 27.4839L65.8953 27.8969C67.0007 28.2467 68.1539 28.5453 69.3122 28.5897C74.3412 28.9105 76.4394 24.6306 76.7993 20.2279C76.8045 20.1477 76.8096 20.047 76.8079 20.0009C76.7823 19.5743 77.1081 19.2074 77.5346 19.1818C78.0719 19.1477 78.4626 19.6596 78.3364 20.1698Z" fill="#57595E"/>
<path d="M78.3261 19.4911C78.9573 23.2045 81.1647 27.5799 85.3459 27.9451C87.323 28.1499 89.2711 27.5014 91.035 26.6652L92.0825 26.1175C90.7706 26.9946 89.353 27.7659 87.7665 28.1977C81.9904 29.8461 78.2647 25.126 76.8915 20.0628C76.8625 19.9485 76.8369 19.8563 76.8062 19.7062C76.7226 19.2898 76.9904 18.8853 77.4066 18.8017C77.857 18.7044 78.2852 19.0355 78.3261 19.4911Z" fill="#57595E"/>
<path d="M142.953 46.1226C142.9 46.1957 142.847 46.2522 142.794 46.292C142.741 46.3319 142.667 46.3518 142.575 46.3518C142.475 46.3518 142.365 46.3119 142.246 46.2322C142.126 46.1459 141.977 46.0529 141.798 45.9533C141.625 45.8536 141.409 45.764 141.15 45.6843C140.898 45.5979 140.586 45.5548 140.214 45.5548C139.716 45.5548 139.278 45.6444 138.9 45.8238C138.521 45.9964 138.202 46.2488 137.943 46.5809C137.691 46.913 137.499 47.3149 137.366 47.7864C137.24 48.258 137.177 48.786 137.177 49.3705C137.177 49.9816 137.246 50.5262 137.386 51.0044C137.525 51.476 137.721 51.8745 137.973 52.2C138.232 52.5188 138.541 52.7645 138.9 52.9372C139.265 53.1033 139.673 53.1863 140.125 53.1863C140.556 53.1863 140.911 53.1365 141.19 53.0369C141.469 52.9306 141.698 52.8144 141.877 52.6882C142.063 52.562 142.216 52.4491 142.336 52.3494C142.462 52.2432 142.584 52.19 142.704 52.19C142.85 52.19 142.963 52.2465 143.043 52.3594L143.541 53.007C143.321 53.2793 143.073 53.5118 142.794 53.7044C142.515 53.897 142.213 54.0597 141.887 54.1926C141.569 54.3188 141.233 54.4117 140.881 54.4715C140.53 54.5313 140.171 54.5612 139.806 54.5612C139.175 54.5612 138.587 54.445 138.043 54.2125C137.505 53.98 137.037 53.6446 136.639 53.2062C136.24 52.7612 135.928 52.2166 135.703 51.5723C135.477 50.9281 135.364 50.1941 135.364 49.3705C135.364 48.62 135.467 47.9259 135.673 47.2883C135.885 46.6507 136.191 46.1027 136.589 45.6444C136.994 45.1795 137.489 44.8175 138.073 44.5585C138.664 44.2994 139.341 44.1699 140.105 44.1699C140.815 44.1699 141.439 44.2862 141.977 44.5186C142.521 44.7444 143.003 45.0666 143.421 45.485L142.953 46.1226Z" fill="#57595E"/>
<path d="M128.883 44.1699C129.62 44.1699 130.284 44.2928 130.875 44.5385C131.465 44.7843 131.97 45.133 132.388 45.5846C132.807 46.0363 133.125 46.5843 133.344 47.2285C133.57 47.8661 133.683 48.5801 133.683 49.3705C133.683 50.1676 133.57 50.8849 133.344 51.5225C133.125 52.1601 132.807 52.7048 132.388 53.1564C131.97 53.6081 131.465 53.9568 130.875 54.2025C130.284 54.4416 129.62 54.5612 128.883 54.5612C128.139 54.5612 127.468 54.4416 126.871 54.2025C126.28 53.9568 125.775 53.6081 125.357 53.1564C124.939 52.7048 124.617 52.1601 124.391 51.5225C124.172 50.8849 124.062 50.1676 124.062 49.3705C124.062 48.5801 124.172 47.8661 124.391 47.2285C124.617 46.5843 124.939 46.0363 125.357 45.5846C125.775 45.133 126.28 44.7843 126.871 44.5385C127.468 44.2928 128.139 44.1699 128.883 44.1699ZM128.883 53.1763C129.879 53.1763 130.622 52.8443 131.114 52.1801C131.605 51.5092 131.851 50.576 131.851 49.3805C131.851 48.1783 131.605 47.2418 131.114 46.571C130.622 45.9001 129.879 45.5647 128.883 45.5647C128.378 45.5647 127.937 45.6511 127.558 45.8238C127.186 45.9964 126.874 46.2455 126.622 46.571C126.376 46.8964 126.19 47.2983 126.064 47.7765C125.945 48.2481 125.885 48.7827 125.885 49.3805C125.885 50.576 126.131 51.5092 126.622 52.1801C127.12 52.8443 127.873 53.1763 128.883 53.1763Z" fill="#57595E"/>
<path d="M121.812 44.3296V54.422H120.029V49.6996H115.189V54.422H113.406V44.3296H115.189V48.3546H120.029V44.3296H121.812Z" fill="#57595E"/>
<path d="M105.507 44.3294V54.4218H103.735V47.5673C103.735 47.4345 103.741 47.2917 103.754 47.1389C103.768 46.9862 103.784 46.8334 103.804 46.6807C103.744 46.8135 103.685 46.9364 103.625 47.0493C103.565 47.1622 103.502 47.2651 103.436 47.3581L98.5656 53.9834C98.4926 54.0897 98.3996 54.1927 98.2867 54.2923C98.1805 54.3853 98.061 54.4318 97.9282 54.4318H96.8526V44.3394H98.6353V51.1938C98.6353 51.32 98.6287 51.4595 98.6154 51.6123C98.6021 51.7584 98.5855 51.9078 98.5656 52.0606C98.6254 51.9344 98.6851 51.8182 98.7449 51.7119C98.8046 51.599 98.8644 51.496 98.9241 51.4031L103.794 44.7777C103.867 44.6715 103.96 44.5719 104.073 44.4789C104.186 44.3792 104.309 44.3294 104.442 44.3294H105.507ZM101.294 41.8885C101.567 41.8885 101.796 41.8586 101.982 41.7989C102.168 41.7324 102.317 41.6295 102.43 41.49C102.549 41.3505 102.636 41.1712 102.689 40.952C102.742 40.7328 102.768 40.4638 102.768 40.145H103.804C103.93 40.145 104.027 40.2015 104.093 40.3144C104.159 40.4273 104.193 40.5502 104.193 40.683C104.193 41.0151 104.126 41.314 103.993 41.5797C103.861 41.8453 103.668 42.0745 103.416 42.2671C103.17 42.4531 102.868 42.5959 102.51 42.6955C102.151 42.7951 101.746 42.845 101.294 42.845C100.843 42.845 100.438 42.7951 100.079 42.6955C99.7209 42.5959 99.4155 42.4531 99.1632 42.2671C98.9175 42.0745 98.7283 41.8453 98.5955 41.5797C98.4627 41.314 98.3963 41.0151 98.3963 40.683C98.3963 40.5502 98.4295 40.4273 98.4959 40.3144C98.5623 40.2015 98.6586 40.145 98.7847 40.145H99.8205C99.8205 40.4638 99.847 40.7328 99.9002 40.952C99.9533 41.1712 100.036 41.3505 100.149 41.49C100.269 41.6295 100.421 41.7324 100.607 41.7989C100.793 41.8586 101.022 41.8885 101.294 41.8885Z" fill="#57595E"/>
<path d="M86.3519 53.1268C86.7104 53.1268 87.0192 53.0836 87.2781 52.9973C87.5437 52.9043 87.7628 52.7781 87.9354 52.6187C88.1081 52.4526 88.2375 52.26 88.3239 52.0408C88.4102 51.8217 88.4533 51.5826 88.4533 51.3235C88.4533 51.0844 88.4168 50.8619 88.3438 50.656C88.2707 50.4435 88.1479 50.2575 87.9753 50.0981C87.8093 49.9387 87.5902 49.8125 87.318 49.7195C87.0457 49.6265 86.7138 49.58 86.322 49.58H84.1708V53.1268H86.3519ZM86.322 48.2848C87.0192 48.2848 87.6035 48.3679 88.0749 48.5339C88.5529 48.7 88.9347 48.9225 89.2202 49.2014C89.5123 49.4804 89.7215 49.8025 89.8476 50.1678C89.9738 50.5331 90.0369 50.9117 90.0369 51.3036C90.0369 51.7552 89.9572 52.1737 89.7978 52.5589C89.6385 52.9375 89.4028 53.2663 89.0907 53.5452C88.7787 53.8176 88.3936 54.0334 87.9354 54.1928C87.4773 54.3456 86.9495 54.422 86.3519 54.422H82.4777V44.3296H84.1708V48.2848H86.322ZM94.0306 44.3296V54.422H92.2578V44.3296H94.0306Z" fill="#57595E"/>
<path d="M79.6597 44.3296V54.422H77.8769V49.6996H73.0367V54.422H71.254V44.3296H73.0367V48.3546H77.8769V44.3296H79.6597Z" fill="#57595E"/>
<path d="M69.599 54.422H68.364C68.0453 54.422 67.7997 54.3722 67.627 54.2725C67.461 54.1729 67.3316 54.0168 67.2386 53.8043L65.2766 50.666C64.9513 50.1479 64.4832 49.8889 63.8723 49.8889H62.8565V54.4319H61.1335V49.8889H60.1276C59.8289 49.8889 59.5566 49.9553 59.311 50.0881C59.0719 50.221 58.8761 50.4136 58.7234 50.666L56.7614 53.8043C56.6618 54.0168 56.5257 54.1729 56.353 54.2725C56.187 54.3722 55.9447 54.422 55.626 54.422H54.401L57.0502 50.2475C57.2228 49.9553 57.4187 49.7195 57.6378 49.5402C57.8569 49.3608 58.1258 49.2247 58.4445 49.1317C58.1922 49.052 57.9764 48.9358 57.7971 48.783C57.6245 48.6236 57.4618 48.421 57.3091 48.1753L54.6799 44.3296H56.0742C56.2468 44.3296 56.4028 44.3761 56.5423 44.4691C56.6817 44.5554 56.7912 44.675 56.8709 44.8277L59.0122 48.0158C59.1583 48.235 59.3342 48.4044 59.54 48.524C59.7459 48.6369 59.9882 48.6933 60.2671 48.6933H61.1335V44.3296H62.8565V48.6933H63.703C64.2674 48.6933 64.6923 48.4675 64.9778 48.0158L67.1191 44.8277C67.1988 44.675 67.3083 44.5554 67.4478 44.4691C67.5938 44.3761 67.7532 44.3296 67.9258 44.3296H69.3201L66.6908 48.1753C66.5381 48.421 66.3721 48.6236 66.1929 48.783C66.0203 48.9358 65.8078 49.052 65.5555 49.1317C65.8742 49.2247 66.1431 49.3608 66.3622 49.5402C66.5813 49.7195 66.7772 49.9553 66.9498 50.2475L69.599 54.422Z" fill="#57595E"/>
<path d="M51.1231 49.8785C50.3064 49.9051 49.6093 49.9715 49.0316 50.0778C48.4606 50.1774 47.9925 50.3103 47.6274 50.4763C47.2688 50.6424 47.0066 50.8383 46.8406 51.0641C46.6812 51.29 46.6015 51.5423 46.6015 51.8213C46.6015 52.087 46.6447 52.3161 46.731 52.5087C46.8173 52.7014 46.9335 52.8608 47.0796 52.987C47.2323 53.1065 47.4083 53.1962 47.6074 53.256C47.8133 53.3091 48.0324 53.3357 48.2648 53.3357C48.5768 53.3357 48.8623 53.3058 49.1213 53.246C49.3802 53.1796 49.6226 53.0866 49.8483 52.967C50.0807 52.8475 50.2998 52.7047 50.5056 52.5386C50.7181 52.3726 50.9239 52.1833 51.1231 51.9707V49.8785ZM45.3965 45.7539C45.9542 45.2159 46.5551 44.8141 47.1991 44.5484C47.8431 44.2827 48.5569 44.1499 49.3404 44.1499C49.9047 44.1499 50.406 44.2429 50.8442 44.4289C51.2824 44.6148 51.6509 44.8739 51.9497 45.206C52.2485 45.5381 52.4742 45.9399 52.627 46.4115C52.7797 46.883 52.856 47.4011 52.856 47.9657V54.4216H52.0692C51.8966 54.4216 51.7638 54.395 51.6709 54.3419C51.5779 54.2821 51.5049 54.1692 51.4518 54.0032L51.2526 53.0467C50.987 53.2925 50.728 53.5117 50.4757 53.7043C50.2234 53.8903 49.9579 54.0497 49.679 54.1825C49.4001 54.3087 49.1013 54.405 48.7826 54.4714C48.4706 54.5445 48.122 54.581 47.7369 54.581C47.3452 54.581 46.9767 54.5279 46.6314 54.4216C46.2862 54.3087 45.9841 54.1426 45.7251 53.9235C45.4728 53.7043 45.2703 53.4286 45.1176 53.0965C44.9715 52.7578 44.8985 52.3593 44.8985 51.901C44.8985 51.5025 45.0081 51.1206 45.2272 50.7553C45.4463 50.3833 45.8015 50.0546 46.2928 49.769C46.7841 49.4834 47.4249 49.2509 48.215 49.0716C49.0051 48.8856 49.9744 48.7793 51.1231 48.7527V47.9657C51.1231 47.1819 50.9538 46.5908 50.6152 46.1923C50.2765 45.7871 49.7819 45.5846 49.1312 45.5846C48.693 45.5846 48.3245 45.641 48.0257 45.7539C47.7336 45.8602 47.478 45.9831 47.2589 46.1225C47.0464 46.2554 46.8605 46.3783 46.7011 46.4912C46.5484 46.5974 46.3957 46.6506 46.243 46.6506C46.1235 46.6506 46.0206 46.6207 45.9343 46.5609C45.848 46.4945 45.7749 46.4148 45.7152 46.3218L45.3965 45.7539Z" fill="#57595E"/>
<path d="M42.8475 54.422H41.0748V45.7244H37.8878C37.8081 47.0063 37.6886 48.1155 37.5292 49.052C37.3699 49.9819 37.1773 50.7756 36.9516 51.4331C36.7325 52.084 36.4835 52.6154 36.2047 53.0272C35.9324 53.4323 35.6436 53.7478 35.3382 53.9736C35.0394 54.1995 34.7273 54.3522 34.402 54.4319C34.0833 54.5116 33.7646 54.5515 33.4459 54.5515C32.8815 54.5515 32.5994 54.4618 32.5994 54.2825V53.1567H33.1173C33.343 53.1567 33.5721 53.1168 33.8044 53.0371C34.0368 52.9574 34.2626 52.8047 34.4817 52.5788C34.7074 52.353 34.9232 52.0375 35.129 51.6324C35.3349 51.2206 35.5208 50.6892 35.6868 50.0383C35.8594 49.3808 36.0055 48.5871 36.125 47.6572C36.2511 46.7207 36.3474 45.6115 36.4138 44.3296H42.8475V54.422Z" fill="#57595E"/>
<path d="M27.0017 52.8875C27.5528 52.8875 28.0276 52.8244 28.4259 52.6982C28.8243 52.572 29.1496 52.396 29.4019 52.1702C29.6609 51.9377 29.8501 51.6654 29.9696 51.3532C30.0891 51.0344 30.1489 50.6857 30.1489 50.3071C30.1489 49.5699 29.8866 48.9887 29.3621 48.5636C28.8376 48.1319 28.0508 47.916 27.0017 47.916H23.9143V52.8875H27.0017ZM23.9143 41.6693V46.5412H26.4639C27.0084 46.5412 27.4798 46.4814 27.8782 46.3618C28.2832 46.2423 28.6152 46.0762 28.8741 45.8637C29.1397 45.6512 29.3356 45.3954 29.4617 45.0966C29.5879 44.791 29.6509 44.4589 29.6509 44.1003C29.6509 43.2568 29.3986 42.6424 28.894 42.2571C28.3894 41.8653 27.6059 41.6693 26.5436 41.6693H23.9143ZM26.5436 40.145C27.42 40.145 28.1736 40.2314 28.8044 40.4041C29.4418 40.5767 29.963 40.8225 30.368 41.1413C30.7797 41.4601 31.0818 41.852 31.2743 42.3169C31.4669 42.7752 31.5631 43.2933 31.5631 43.8711C31.5631 44.2231 31.5067 44.5619 31.3938 44.8873C31.2876 45.2062 31.1249 45.505 30.9058 45.784C30.6867 46.063 30.4078 46.3154 30.0692 46.5412C29.7372 46.7604 29.3455 46.9397 28.894 47.0792C29.9431 47.2784 30.7299 47.6537 31.2544 48.205C31.7856 48.7496 32.0511 49.4669 32.0511 50.3569C32.0511 50.9614 31.9383 51.5126 31.7125 52.0108C31.4934 52.5089 31.1681 52.9373 30.7365 53.296C30.3116 53.6547 29.787 53.9336 29.1629 54.1329C28.5388 54.3255 27.8284 54.4218 27.0316 54.4218H21.9922V40.145H26.5436Z" fill="#57595E"/>
<path d="M132.606 65.0196C132.198 65.0329 131.849 65.0661 131.561 65.1192C131.275 65.169 131.041 65.2355 130.859 65.3185C130.679 65.4015 130.548 65.4995 130.465 65.6124C130.385 65.7253 130.346 65.8515 130.346 65.991C130.346 66.1238 130.367 66.2384 130.41 66.3347C130.454 66.431 130.512 66.5107 130.585 66.5738C130.661 66.6336 130.749 66.6784 130.849 66.7083C130.951 66.7349 131.061 66.7482 131.177 66.7482C131.333 66.7482 131.476 66.7332 131.605 66.7033C131.735 66.6701 131.856 66.6236 131.969 66.5638C132.085 66.5041 132.195 66.4327 132.298 66.3496C132.404 66.2666 132.507 66.172 132.606 66.0657V65.0196ZM129.743 62.9573C130.022 62.6883 130.322 62.4874 130.644 62.3545C130.966 62.2217 131.323 62.1553 131.715 62.1553C131.997 62.1553 132.248 62.2018 132.467 62.2948C132.686 62.3877 132.87 62.5173 133.02 62.6833C133.169 62.8494 133.282 63.0503 133.358 63.2861C133.435 63.5218 133.473 63.7809 133.473 64.0632V67.2911H133.079C132.993 67.2911 132.927 67.2778 132.88 67.2513C132.834 67.2214 132.797 67.1649 132.771 67.0819L132.671 66.6037C132.538 66.7266 132.409 66.8362 132.283 66.9325C132.157 67.0255 132.024 67.1052 131.884 67.1716C131.745 67.2347 131.596 67.2828 131.436 67.316C131.28 67.3526 131.106 67.3708 130.913 67.3708C130.717 67.3708 130.533 67.3443 130.361 67.2911C130.188 67.2347 130.037 67.1516 129.907 67.0421C129.781 66.9325 129.68 66.7946 129.604 66.6286C129.531 66.4592 129.494 66.26 129.494 66.0308C129.494 65.8316 129.549 65.6406 129.658 65.458C129.768 65.272 129.946 65.1076 130.191 64.9648C130.437 64.822 130.757 64.7058 131.152 64.6161C131.547 64.5231 132.032 64.47 132.606 64.4567V64.0632C132.606 63.6713 132.522 63.3757 132.352 63.1765C132.183 62.9739 131.936 62.8726 131.61 62.8726C131.391 62.8726 131.207 62.9008 131.058 62.9573C130.912 63.0104 130.784 63.0719 130.674 63.1416C130.568 63.208 130.475 63.2695 130.395 63.3259C130.319 63.379 130.243 63.4056 130.166 63.4056C130.107 63.4056 130.055 63.3907 130.012 63.3608C129.969 63.3276 129.932 63.2877 129.902 63.2412L129.743 62.9573Z" fill="#AEAEAE"/>
<path d="M127.78 62.4932C127.827 62.4202 127.888 62.3604 127.965 62.3139C128.041 62.2674 128.122 62.2441 128.209 62.2441H128.901L127.591 64.167C127.511 64.2898 127.428 64.3911 127.342 64.4708C127.256 64.5472 127.15 64.607 127.023 64.6502C127.183 64.6933 127.317 64.7614 127.427 64.8544C127.536 64.9441 127.634 65.0603 127.721 65.2031L129.045 67.2903H128.428C128.268 67.2903 128.146 67.2638 128.059 67.2106C127.973 67.1575 127.898 67.0811 127.835 66.9815L126.854 65.4123C126.698 65.1533 126.464 65.0238 126.152 65.0238H125.609V67.2953H124.718V62.2441H125.609V64.426H126.087C126.353 64.426 126.56 64.3131 126.71 64.0873L127.78 62.4932Z" fill="#AEAEAE"/>
<path d="M123.317 62.2441V67.2903H122.43V63.8631C122.43 63.7967 122.434 63.7253 122.44 63.6489C122.447 63.5725 122.455 63.4961 122.465 63.4198C122.435 63.4862 122.405 63.5476 122.376 63.6041C122.346 63.6605 122.314 63.712 122.281 63.7585L119.846 67.0711C119.809 67.1243 119.763 67.1758 119.706 67.2256C119.653 67.2721 119.594 67.2953 119.527 67.2953H118.989V62.2491H119.881V65.6763C119.881 65.7394 119.877 65.8092 119.871 65.8856C119.864 65.9586 119.856 66.0333 119.846 66.1097C119.876 66.0466 119.906 65.9885 119.936 65.9354C119.965 65.8789 119.995 65.8274 120.025 65.781L122.46 62.4683C122.497 62.4152 122.543 62.3654 122.6 62.3189C122.656 62.269 122.717 62.2441 122.784 62.2441H123.317Z" fill="#AEAEAE"/>
<path d="M117.58 62.2441V67.2903H116.689V64.9291H114.269V67.2903H113.378V62.2441H114.269V64.2566H116.689V62.2441H117.58Z" fill="#AEAEAE"/>
<path d="M111.976 62.2441V67.2903H111.09V63.8631C111.09 63.7967 111.093 63.7253 111.1 63.6489C111.106 63.5725 111.115 63.4961 111.125 63.4198C111.095 63.4862 111.065 63.5476 111.035 63.6041C111.005 63.6605 110.974 63.712 110.94 63.7585L108.505 67.0711C108.469 67.1243 108.422 67.1758 108.366 67.2256C108.313 67.2721 108.253 67.2953 108.187 67.2953H107.649V62.2491H108.54V65.6763C108.54 65.7394 108.537 65.8092 108.53 65.8856C108.524 65.9586 108.515 66.0333 108.505 66.1097C108.535 66.0466 108.565 65.9885 108.595 65.9354C108.625 65.8789 108.655 65.8274 108.685 65.781L111.12 62.4683C111.156 62.4152 111.203 62.3654 111.259 62.3189C111.316 62.269 111.377 62.2441 111.443 62.2441H111.976Z" fill="#AEAEAE"/>
<path d="M106.245 67.2903H105.359V62.9415H103.765C103.725 63.5825 103.666 64.1371 103.586 64.6053C103.506 65.0703 103.41 65.4671 103.297 65.7959C103.188 66.1214 103.063 66.387 102.924 66.5929C102.788 66.7955 102.643 66.9533 102.491 67.0662C102.341 67.1791 102.185 67.2555 102.022 67.2953C101.863 67.3352 101.704 67.3551 101.544 67.3551C101.262 67.3551 101.121 67.3103 101.121 67.2206V66.6577H101.38C101.493 66.6577 101.607 66.6378 101.724 66.5979C101.84 66.5581 101.953 66.4817 102.062 66.3688C102.175 66.2559 102.283 66.0981 102.386 65.8955C102.489 65.6896 102.582 65.424 102.665 65.0985C102.751 64.7697 102.824 64.3729 102.884 63.9079C102.947 63.4397 102.995 62.8851 103.028 62.2441H106.245V67.2903Z" fill="#AEAEAE"/>
<path d="M99.7309 62.4932C99.7774 62.4202 99.8388 62.3604 99.9151 62.3139C99.9915 62.2674 100.073 62.2441 100.159 62.2441H100.851L99.5417 64.167C99.462 64.2898 99.379 64.3911 99.2927 64.4708C99.2064 64.5472 99.1001 64.607 98.974 64.6502C99.1333 64.6933 99.2678 64.7614 99.3773 64.8544C99.4869 64.9441 99.5848 65.0603 99.6711 65.2031L100.996 67.2903H100.378C100.219 67.2903 100.096 67.2638 100.01 67.2106C99.9234 67.1575 99.8487 67.0811 99.7857 66.9815L98.8047 65.4123C98.6486 65.1533 98.4146 65.0238 98.1025 65.0238H97.5598V67.2953H96.6684V62.2441H97.5598V64.426H98.0378C98.3034 64.426 98.5109 64.3131 98.6603 64.0873L99.7309 62.4932Z" fill="#AEAEAE"/>
<path d="M91.8628 64.6004V62.8419H91.0162C90.827 62.8419 90.6676 62.8701 90.5382 62.9266C90.4087 62.9797 90.3041 63.0495 90.2244 63.1358C90.1481 63.2188 90.0933 63.3135 90.0601 63.4198C90.0269 63.5227 90.0103 63.6257 90.0103 63.7286C90.0103 64.0009 90.1099 64.2151 90.3091 64.3712C90.5083 64.524 90.7805 64.6004 91.1258 64.6004H91.8628ZM92.7093 62.2441V67.2903H91.8628V65.1633H91.4743C91.3814 65.1633 91.3034 65.1716 91.2403 65.1882C91.1805 65.2014 91.1274 65.2214 91.0809 65.2479C91.0378 65.2745 90.9996 65.3094 90.9664 65.3526C90.9332 65.3924 90.8984 65.4389 90.8618 65.492L89.7564 66.9815C89.6999 67.0878 89.6302 67.1658 89.5472 67.2156C89.4675 67.2654 89.3497 67.2903 89.1937 67.2903H88.5762L90.0402 65.3874C90.1597 65.1882 90.3174 65.0553 90.5133 64.9889C90.2576 64.9557 90.0419 64.8959 89.8659 64.8096C89.69 64.7232 89.5455 64.6219 89.4327 64.5057C89.3231 64.3862 89.2435 64.255 89.1937 64.1122C89.1439 63.9694 89.119 63.8249 89.119 63.6788C89.119 63.5061 89.1522 63.3334 89.2186 63.1607C89.2883 62.988 89.3978 62.8353 89.5472 62.7024C89.6966 62.5663 89.8891 62.4567 90.1248 62.3737C90.3639 62.2873 90.6527 62.2441 90.9913 62.2441H92.7093Z" fill="#AEAEAE"/>
<path d="M86.9919 65.0196C86.5836 65.0329 86.235 65.0661 85.9462 65.1192C85.6607 65.169 85.4267 65.2355 85.2441 65.3185C85.0648 65.4015 84.9337 65.4995 84.8507 65.6124C84.771 65.7253 84.7312 65.8515 84.7312 65.991C84.7312 66.1238 84.7527 66.2384 84.7959 66.3347C84.8391 66.431 84.8972 66.5107 84.9702 66.5738C85.0465 66.6336 85.1345 66.6784 85.2341 66.7083C85.337 66.7349 85.4466 66.7482 85.5628 66.7482C85.7188 66.7482 85.8615 66.7332 85.991 66.7033C86.1205 66.6701 86.2417 66.6236 86.3545 66.5638C86.4707 66.5041 86.5803 66.4327 86.6832 66.3496C86.7894 66.2666 86.8923 66.172 86.9919 66.0657V65.0196ZM84.1286 62.9573C84.4075 62.6883 84.7079 62.4874 85.0299 62.3545C85.352 62.2217 85.7088 62.1553 86.1006 62.1553C86.3828 62.1553 86.6334 62.2018 86.8525 62.2948C87.0716 62.3877 87.2559 62.5173 87.4053 62.6833C87.5546 62.8494 87.6675 63.0503 87.7439 63.2861C87.8202 63.5218 87.8584 63.7809 87.8584 64.0632V67.2911H87.465C87.3787 67.2911 87.3123 67.2778 87.2658 67.2513C87.2193 67.2214 87.1828 67.1649 87.1563 67.0819L87.0567 66.6037C86.9239 66.7266 86.7944 66.8362 86.6683 66.9325C86.5421 67.0255 86.4093 67.1052 86.2699 67.1716C86.1305 67.2347 85.9811 67.2828 85.8217 67.316C85.6657 67.3526 85.4914 67.3708 85.2988 67.3708C85.103 67.3708 84.9187 67.3443 84.7461 67.2911C84.5735 67.2347 84.4224 67.1516 84.293 67.0421C84.1668 66.9325 84.0655 66.7946 83.9892 66.6286C83.9162 66.4592 83.8796 66.26 83.8796 66.0308C83.8796 65.8316 83.9344 65.6406 84.044 65.458C84.1535 65.272 84.3311 65.1076 84.5768 64.9648C84.8225 64.822 85.1428 64.7058 85.5379 64.6161C85.9329 64.5231 86.4176 64.47 86.9919 64.4567V64.0632C86.9919 63.6713 86.9073 63.3757 86.738 63.1765C86.5687 62.9739 86.3213 62.8726 85.996 62.8726C85.7769 62.8726 85.5927 62.9008 85.4433 62.9573C85.2972 63.0104 85.1694 63.0719 85.0598 63.1416C84.9536 63.208 84.8606 63.2695 84.781 63.3259C84.7046 63.379 84.6282 63.4056 84.5519 63.4056C84.4921 63.4056 84.4407 63.3907 84.3975 63.3608C84.3544 63.3276 84.3179 63.2877 84.288 63.2412L84.1286 62.9573Z" fill="#AEAEAE"/>
<path d="M82.849 62.2441V67.2903H81.9577V64.9291H79.5375V67.2903H78.6462V62.2441H79.5375V64.2566H81.9577V62.2441H82.849Z" fill="#AEAEAE"/>
<path d="M73.9647 66.0757C74.1273 66.2948 74.3049 66.4493 74.4975 66.5389C74.69 66.6286 74.9058 66.6734 75.1448 66.6734C75.6163 66.6734 75.9781 66.5057 76.2304 66.1703C76.4827 65.8349 76.6089 65.3567 76.6089 64.7357C76.6089 64.4069 76.579 64.1246 76.5192 63.8888C76.4628 63.653 76.3798 63.4604 76.2703 63.311C76.1607 63.1582 76.0263 63.0469 75.8669 62.9772C75.7076 62.9075 75.5266 62.8726 75.3241 62.8726C75.0353 62.8726 74.7813 62.939 74.5622 63.0719C74.3464 63.2047 74.1473 63.3923 73.9647 63.6348V66.0757ZM73.9198 63.027C74.1323 62.7647 74.378 62.5538 74.6568 62.3944C74.9357 62.235 75.2544 62.1553 75.6129 62.1553C75.9051 62.1553 76.169 62.2117 76.4047 62.3246C76.6404 62.4342 76.8413 62.5986 77.0072 62.8178C77.1732 63.0337 77.301 63.3027 77.3907 63.6248C77.4803 63.9469 77.5251 64.3172 77.5251 64.7357C77.5251 65.1076 77.4753 65.4546 77.3757 65.7768C77.2761 66.0956 77.1317 66.3729 76.9425 66.6087C76.7566 66.8411 76.5275 67.0255 76.2553 67.1616C75.9864 67.2944 75.6827 67.3609 75.344 67.3609C75.0353 67.3609 74.7697 67.3094 74.5473 67.2064C74.3282 67.1002 74.134 66.9541 73.9647 66.7681V68.9998H73.0733V62.2449H73.6061C73.7323 62.2449 73.8103 62.3064 73.8402 62.4293L73.9198 63.027Z" fill="#AEAEAE"/>
<path d="M70.8566 65.0196C70.4483 65.0329 70.0997 65.0661 69.8109 65.1192C69.5254 65.169 69.2913 65.2355 69.1088 65.3185C68.9295 65.4015 68.7984 65.4995 68.7154 65.6124C68.6357 65.7253 68.5958 65.8515 68.5958 65.991C68.5958 66.1238 68.6174 66.2384 68.6606 66.3347C68.7037 66.431 68.7618 66.5107 68.8349 66.5738C68.9112 66.6336 68.9992 66.6784 69.0988 66.7083C69.2017 66.7349 69.3113 66.7482 69.4275 66.7482C69.5835 66.7482 69.7262 66.7332 69.8557 66.7033C69.9852 66.6701 70.1064 66.6236 70.2192 66.5638C70.3354 66.5041 70.445 66.4327 70.5479 66.3496C70.6541 66.2666 70.757 66.172 70.8566 66.0657V65.0196ZM67.9933 62.9573C68.2722 62.6883 68.5726 62.4874 68.8946 62.3545C69.2166 62.2217 69.5735 62.1553 69.9653 62.1553C70.2474 62.1553 70.4981 62.2018 70.7172 62.2948C70.9363 62.3877 71.1205 62.5173 71.2699 62.6833C71.4193 62.8494 71.5322 63.0503 71.6086 63.2861C71.6849 63.5218 71.7231 63.7809 71.7231 64.0632V67.2911H71.3297C71.2434 67.2911 71.177 67.2778 71.1305 67.2513C71.084 67.2214 71.0475 67.1649 71.021 67.0819L70.9214 66.6037C70.7886 66.7266 70.6591 66.8362 70.5329 66.9325C70.4068 67.0255 70.274 67.1052 70.1346 67.1716C69.9951 67.2347 69.8457 67.2828 69.6864 67.316C69.5304 67.3526 69.3561 67.3708 69.1635 67.3708C68.9677 67.3708 68.7834 67.3443 68.6108 67.2911C68.4382 67.2347 68.2871 67.1516 68.1576 67.0421C68.0315 66.9325 67.9302 66.7946 67.8539 66.6286C67.7808 66.4592 67.7443 66.26 67.7443 66.0308C67.7443 65.8316 67.7991 65.6406 67.9087 65.458C68.0182 65.272 68.1958 65.1076 68.4415 64.9648C68.6871 64.822 69.0075 64.7058 69.4026 64.6161C69.7976 64.5231 70.2823 64.47 70.8566 64.4567V64.0632C70.8566 63.6713 70.772 63.3757 70.6027 63.1765C70.4333 62.9739 70.186 62.8726 69.8607 62.8726C69.6416 62.8726 69.4573 62.9008 69.3079 62.9573C69.1619 63.0104 69.0341 63.0719 68.9245 63.1416C68.8183 63.208 68.7253 63.2695 68.6456 63.3259C68.5693 63.379 68.4929 63.4056 68.4166 63.4056C68.3568 63.4056 68.3054 63.3907 68.2622 63.3608C68.2191 63.3276 68.1825 63.2877 68.1527 63.2412L67.9933 62.9573Z" fill="#AEAEAE"/>
<path d="M66.7137 62.2441V67.2903H65.8223V64.9291H63.4022V67.2903H62.5109V62.2441H63.4022V64.2566H65.8223V62.2441H66.7137Z" fill="#AEAEAE"/>
<path d="M61.1096 62.2441V67.2903H60.2232V63.8631C60.2232 63.7967 60.2265 63.7253 60.2331 63.6489C60.2398 63.5725 60.2481 63.4961 60.258 63.4198C60.2282 63.4862 60.1983 63.5476 60.1684 63.6041C60.1385 63.6605 60.107 63.712 60.0738 63.7585L57.6387 67.0711C57.6022 67.1243 57.5557 67.1758 57.4993 67.2256C57.4462 67.2721 57.3864 67.2953 57.32 67.2953H56.7822V62.2491H57.6736V65.6763C57.6736 65.7394 57.6703 65.8092 57.6636 65.8856C57.657 65.9586 57.6487 66.0333 57.6387 66.1097C57.6686 66.0466 57.6985 65.9885 57.7284 65.9354C57.7582 65.8789 57.7881 65.8274 57.818 65.781L60.2531 62.4683C60.2896 62.4152 60.3361 62.3654 60.3925 62.3189C60.4489 62.269 60.5103 62.2441 60.5767 62.2441H61.1096Z" fill="#AEAEAE"/>
<path d="M52.1007 66.0757C52.2633 66.2948 52.4409 66.4493 52.6335 66.5389C52.826 66.6286 53.0418 66.6734 53.2808 66.6734C53.7522 66.6734 54.1141 66.5057 54.3664 66.1703C54.6187 65.8349 54.7449 65.3567 54.7449 64.7357C54.7449 64.4069 54.715 64.1246 54.6552 63.8888C54.5988 63.653 54.5158 63.4604 54.4062 63.311C54.2967 63.1582 54.1622 63.0469 54.0029 62.9772C53.8435 62.9075 53.6626 62.8726 53.4601 62.8726C53.1713 62.8726 52.9173 62.939 52.6982 63.0719C52.4824 63.2047 52.2832 63.3923 52.1007 63.6348V66.0757ZM52.0558 63.027C52.2683 62.7647 52.514 62.5538 52.7928 62.3944C53.0717 62.235 53.3904 62.1553 53.7489 62.1553C54.0411 62.1553 54.305 62.2117 54.5407 62.3246C54.7764 62.4342 54.9772 62.5986 55.1432 62.8178C55.3092 63.0337 55.437 63.3027 55.5267 63.6248C55.6163 63.9469 55.6611 64.3172 55.6611 64.7357C55.6611 65.1076 55.6113 65.4546 55.5117 65.7768C55.4121 66.0956 55.2677 66.3729 55.0785 66.6087C54.8926 66.8411 54.6635 67.0255 54.3913 67.1616C54.1224 67.2944 53.8186 67.3609 53.48 67.3609C53.1713 67.3609 52.9057 67.3094 52.6833 67.2064C52.4642 67.1002 52.27 66.9541 52.1007 66.7681V68.9998H51.2093V62.2449H51.7421C51.8683 62.2449 51.9463 62.3064 51.9762 62.4293L52.0558 63.027Z" fill="#AEAEAE"/>
<path d="M49.3237 64.2174C49.3237 64.0115 49.2939 63.8239 49.2341 63.6545C49.1777 63.4818 49.093 63.334 48.9801 63.2111C48.8706 63.0849 48.7361 62.9886 48.5768 62.9222C48.4174 62.8525 48.2365 62.8176 48.034 62.8176C47.6091 62.8176 47.2721 62.9421 47.0231 63.1912C46.7775 63.437 46.6247 63.779 46.565 64.2174H49.3237ZM50.0408 66.5836C49.9313 66.7164 49.8001 66.8326 49.6474 66.9323C49.4947 67.0286 49.3304 67.1083 49.1544 67.1714C48.9818 67.2345 48.8025 67.281 48.6166 67.3109C48.4307 67.3441 48.2465 67.3607 48.0639 67.3607C47.7153 67.3607 47.3933 67.3026 47.0978 67.1863C46.8057 67.0668 46.5517 66.8941 46.3359 66.6683C46.1235 66.4391 45.9575 66.1568 45.838 65.8214C45.7184 65.486 45.6587 65.1008 45.6587 64.6657C45.6587 64.3137 45.7118 63.9849 45.818 63.6794C45.9276 63.3739 46.0836 63.1099 46.2861 62.8873C46.4886 62.6615 46.736 62.4855 47.0281 62.3593C47.3202 62.2298 47.6489 62.165 48.0141 62.165C48.3162 62.165 48.595 62.2165 48.8507 62.3195C49.1096 62.4191 49.332 62.5652 49.5179 62.7578C49.7072 62.9471 49.8549 63.1829 49.9611 63.4652C50.0674 63.7442 50.1205 64.063 50.1205 64.4216C50.1205 64.5611 50.1055 64.6541 50.0757 64.7006C50.0458 64.7471 49.9894 64.7703 49.9064 64.7703H46.5351C46.5451 65.0891 46.5882 65.3664 46.6646 65.6022C46.7443 65.838 46.8538 66.0356 46.9932 66.195C47.1327 66.3511 47.2987 66.469 47.4912 66.5487C47.6838 66.6251 47.8995 66.6633 48.1386 66.6633C48.361 66.6633 48.5519 66.6384 48.7112 66.5885C48.8739 66.5354 49.0133 66.479 49.1295 66.4192C49.2457 66.3594 49.342 66.3046 49.4183 66.2548C49.498 66.2017 49.5661 66.1751 49.6225 66.1751C49.6956 66.1751 49.752 66.2033 49.7918 66.2598L50.0408 66.5836Z" fill="#AEAEAE"/>
<path d="M45.3067 62.9216H43.3696V67.2903H42.4832V62.9216H40.5461V62.2441H45.3067V62.9216Z" fill="#AEAEAE"/>
<path d="M39.3062 64.2174C39.3062 64.0115 39.2763 63.8239 39.2165 63.6545C39.1601 63.4818 39.0754 63.334 38.9626 63.2111C38.853 63.0849 38.7186 62.9886 38.5592 62.9222C38.3999 62.8525 38.2189 62.8176 38.0164 62.8176C37.5915 62.8176 37.2545 62.9421 37.0055 63.1912C36.7599 63.437 36.6072 63.779 36.5474 64.2174H39.3062ZM40.0232 66.5836C39.9137 66.7164 39.7825 66.8326 39.6298 66.9323C39.4771 67.0286 39.3128 67.1083 39.1368 67.1714C38.9642 67.2345 38.7849 67.281 38.599 67.3109C38.4131 67.3441 38.2289 67.3607 38.0463 67.3607C37.6977 67.3607 37.3757 67.3026 37.0802 67.1863C36.7881 67.0668 36.5341 66.8941 36.3183 66.6683C36.1059 66.4391 35.9399 66.1568 35.8204 65.8214C35.7009 65.486 35.6411 65.1008 35.6411 64.6657C35.6411 64.3137 35.6942 63.9849 35.8005 63.6794C35.91 63.3739 36.066 63.1099 36.2686 62.8873C36.4711 62.6615 36.7184 62.4855 37.0105 62.3593C37.3027 62.2298 37.6313 62.165 37.9965 62.165C38.2986 62.165 38.5775 62.2165 38.8331 62.3195C39.092 62.4191 39.3145 62.5652 39.5004 62.7578C39.6896 62.9471 39.8373 63.1829 39.9436 63.4652C40.0498 63.7442 40.1029 64.063 40.1029 64.4216C40.1029 64.5611 40.088 64.6541 40.0581 64.7006C40.0282 64.7471 39.9718 64.7703 39.8888 64.7703H36.5175C36.5275 65.0891 36.5707 65.3664 36.647 65.6022C36.7267 65.838 36.8362 66.0356 36.9757 66.195C37.1151 66.3511 37.2811 66.469 37.4736 66.5487C37.6662 66.6251 37.882 66.6633 38.121 66.6633C38.3434 66.6633 38.5343 66.6384 38.6937 66.5885C38.8563 66.5354 38.9958 66.479 39.1119 66.4192C39.2281 66.3594 39.3244 66.3046 39.4008 66.2548C39.4804 66.2017 39.5485 66.1751 39.6049 66.1751C39.678 66.1751 39.7344 66.2033 39.7742 66.2598L40.0232 66.5836Z" fill="#AEAEAE"/>
<path d="M32.9261 66.6676C33.2581 66.6676 33.5204 66.5913 33.7129 66.4385C33.9054 66.2824 34.0017 66.0699 34.0017 65.8009C34.0017 65.6813 33.9835 65.5734 33.9469 65.4771C33.9104 65.3775 33.8507 65.2911 33.7677 65.2181C33.6847 65.145 33.5735 65.0885 33.434 65.0487C33.2979 65.0088 33.1303 64.9889 32.9311 64.9889H31.8405V66.6676H32.9261ZM31.8405 62.8419V64.426H32.8116C32.9576 64.426 33.0921 64.4061 33.2149 64.3662C33.3411 64.3231 33.449 64.2649 33.5386 64.1919C33.6282 64.1155 33.698 64.0258 33.7478 63.9229C33.7976 63.8166 33.8225 63.7004 33.8225 63.5742C33.8225 63.4812 33.8059 63.3915 33.7727 63.3052C33.7395 63.2155 33.683 63.1375 33.6033 63.0711C33.5237 63.0013 33.4191 62.9465 33.2896 62.9067C33.1602 62.8635 33.0008 62.8419 32.8116 62.8419H31.8405ZM32.8365 62.2441C33.1485 62.2441 33.4158 62.2757 33.6382 62.3388C33.8606 62.4019 34.0432 62.4882 34.186 62.5978C34.3287 62.7041 34.4333 62.8303 34.4997 62.9764C34.5661 63.1225 34.5993 63.2786 34.5993 63.4447C34.5993 63.5543 34.5843 63.6688 34.5545 63.7884C34.5246 63.9079 34.4715 64.0225 34.3951 64.1321C34.3221 64.2417 34.2208 64.3413 34.0914 64.431C33.9652 64.5173 33.8059 64.5854 33.6133 64.6352C33.9984 64.7016 34.2955 64.8361 34.5047 65.0387C34.7138 65.238 34.8184 65.502 34.8184 65.8308C34.8184 66.0765 34.7686 66.2907 34.669 66.4734C34.5727 66.6527 34.4383 66.8038 34.2656 66.9267C34.0963 67.0496 33.8971 67.1409 33.6681 67.2007C33.439 67.2604 33.1934 67.2903 32.9311 67.2903H30.989V62.2441H32.8365Z" fill="#AEAEAE"/>
</svg>
