<svg width="36" height="36" viewBox="0 0 36 36" fill="none" xmlns="http://www.w3.org/2000/svg">
<path d="M1 17.2787C1 13.1792 1.00213 10.2052 1.30763 7.93526C1.60923 5.69421 2.18995 4.28926 3.23961 3.23961C4.28926 2.18995 5.69421 1.60923 7.93526 1.30763C10.2052 1.00213 13.1792 1 17.2787 1H18.7213C22.8208 1 25.7947 1.00213 28.0647 1.30763C30.3058 1.60923 31.7107 2.18995 32.7604 3.23961C33.81 4.28927 34.3908 5.69421 34.6924 7.93526C34.9979 10.2052 35 13.1792 35 17.2787V18.7213C35 22.8208 34.9979 25.7947 34.6924 28.0647C34.3908 30.3058 33.81 31.7107 32.7604 32.7604C31.7107 33.81 30.3058 34.3908 28.0647 34.6924C25.7947 34.9979 22.8208 35 18.7213 35H17.2787C13.1792 35 10.2052 34.9979 7.93526 34.6924C5.69421 34.3908 4.28927 33.81 3.23961 32.7604C2.18995 31.7107 1.60923 30.3058 1.30763 28.0647C1.00213 25.7947 1 22.8208 1 18.7213V17.2787Z" stroke="white" stroke-width="2"/>
<path d="M17.9999 17.9038C19.763 17.9038 21.3499 17.1986 22.504 16.0446C23.658 14.8905 24.3632 13.2877 24.3632 11.5406C24.3632 9.7774 23.658 8.19059 22.504 7.03655C21.3499 5.8825 19.763 5.17725 17.9999 5.17725C16.2368 5.17725 14.65 5.8825 13.4959 7.03655C12.3419 8.19059 11.6366 9.7774 11.6366 11.5406C11.6366 13.3037 12.3419 14.8905 13.4959 16.0446C14.65 17.1826 16.2368 17.9038 17.9999 17.9038ZM15.9643 9.48891C16.4932 8.95995 17.2146 8.63939 17.9999 8.63939C18.8014 8.63939 19.5226 8.95995 20.0356 9.48891C20.5645 10.0179 20.8851 10.7391 20.8851 11.5245C20.8851 12.3099 20.5645 13.0472 20.0356 13.5601C19.5066 14.0891 18.7853 14.4097 17.9999 14.4097C17.1985 14.4097 16.4772 14.0891 15.9643 13.5601C15.4354 13.0312 15.1148 12.3099 15.1148 11.5245C15.1148 10.7391 15.4354 10.0179 15.9643 9.48891Z" fill="white"/>
<path d="M26.5592 20.4684L24.6839 17.9199C24.5717 17.7757 24.3793 17.7597 24.2351 17.8718C22.4719 19.3785 20.3081 20.3402 17.984 20.3402C15.6599 20.3402 13.496 19.3625 11.7328 17.8718C11.6047 17.7597 11.3962 17.7757 11.284 17.9199L9.42475 20.4684C9.32856 20.5967 9.36063 20.773 9.47285 20.8692C11.0436 22.1514 12.8708 23.001 14.7783 23.4498L10.8352 30.3901C10.7391 30.5824 10.8833 30.8229 11.1078 30.8229H14.9706C15.0828 30.8229 15.195 30.7588 15.2431 30.6465L18 24.4916L20.7569 30.6465C20.805 30.7588 20.9172 30.8229 21.0293 30.8229H24.8922C25.1166 30.8229 25.2609 30.5824 25.1487 30.3901L21.2057 23.4498C23.113 23.001 24.9243 22.1514 26.4951 20.8692C26.6233 20.773 26.6394 20.5967 26.5592 20.4684Z" fill="white"/>
</svg>
