<svg width="36" height="36" viewBox="0 0 36 36" fill="none" xmlns="http://www.w3.org/2000/svg">
<g clip-path="url(#clip0_1_577)">
<path fill-rule="evenodd" clip-rule="evenodd" d="M25.74 20.52C25.974 19.161 26.118 18.261 26.235 17.496C26.352 16.731 26.451 16.092 26.523 15.588C26.595 15.084 26.64 14.715 26.685 14.391C26.73 14.076 26.766 13.806 26.802 13.527C26.838 13.248 26.865 12.96 26.892 12.708C26.919 12.456 26.928 12.231 26.937 12.069C26.937 11.907 26.937 11.79 26.937 11.718C26.937 11.646 26.919 11.601 26.901 11.547C26.883 11.493 26.865 11.43 26.838 11.376C26.811 11.313 26.775 11.259 26.721 11.205C26.667 11.151 26.604 11.097 26.523 11.061C26.442 11.016 26.343 10.98 26.235 10.962C26.127 10.944 26.001 10.935 25.884 10.944C25.758 10.944 25.641 10.971 25.47 11.016C25.299 11.061 25.074 11.115 24.813 11.205C24.552 11.295 24.246 11.403 21.672 12.492C19.098 13.581 14.265 15.633 11.835 16.668C9.414 17.703 9.405 17.721 9.333 17.748C9.261 17.784 9.126 17.838 8.964 17.91C8.802 17.982 8.622 18.072 8.469 18.162C8.316 18.252 8.199 18.333 8.1 18.414C8.01 18.495 7.938 18.558 7.902 18.621C7.857 18.684 7.839 18.729 7.83 18.792C7.821 18.855 7.821 18.936 7.83 19.008C7.839 19.08 7.866 19.143 7.902 19.197C7.938 19.251 7.983 19.305 8.055 19.359C8.127 19.413 8.208 19.467 8.325 19.53C8.442 19.584 8.586 19.647 8.802 19.719C9.018 19.8 9.315 19.89 9.711 20.016C10.107 20.142 10.602 20.286 10.98 20.394C11.358 20.493 11.619 20.547 11.835 20.592C12.051 20.628 12.222 20.655 12.384 20.664C12.546 20.664 12.708 20.664 12.87 20.637C13.032 20.61 13.185 20.565 13.329 20.52C13.473 20.466 13.617 20.412 13.752 20.34C13.896 20.268 14.04 20.178 14.778 19.692C15.507 19.197 16.821 18.306 18 17.505C19.179 16.704 20.232 16.002 20.808 15.615C21.384 15.228 21.492 15.165 21.573 15.111C21.654 15.057 21.708 15.021 21.762 15.003C21.816 14.976 21.87 14.967 21.924 14.967C21.978 14.967 22.023 14.967 22.059 14.967C22.104 14.967 22.131 14.994 22.158 15.012C22.185 15.03 22.203 15.057 22.221 15.111C22.23 15.165 22.239 15.237 22.221 15.291C22.221 15.345 22.194 15.381 22.104 15.498C22.014 15.615 21.843 15.804 21.348 16.299C20.853 16.794 20.034 17.595 19.53 18.081C19.026 18.567 18.846 18.747 18.684 18.9C18.522 19.053 18.387 19.179 18.234 19.323C18.09 19.458 17.937 19.611 17.784 19.755C17.64 19.899 17.496 20.034 17.352 20.169C17.217 20.304 17.082 20.43 16.956 20.556C16.821 20.691 16.695 20.826 16.587 20.943C16.479 21.06 16.398 21.15 16.335 21.24C16.272 21.33 16.227 21.402 16.191 21.492C16.155 21.573 16.119 21.672 16.101 21.753C16.083 21.834 16.092 21.906 16.11 21.996C16.137 22.086 16.182 22.194 16.236 22.293C16.29 22.392 16.362 22.473 16.461 22.572C16.56 22.671 16.686 22.779 17.19 23.13C17.694 23.481 18.558 24.084 19.422 24.669C20.277 25.254 21.123 25.83 21.645 26.19C22.167 26.541 22.365 26.676 22.554 26.775C22.743 26.874 22.941 26.937 23.067 26.973C23.193 27.009 23.256 27.027 23.373 27.036C23.481 27.036 23.643 27.045 23.76 27.036C23.877 27.027 23.949 27 24.03 26.946C24.111 26.901 24.201 26.829 24.291 26.73C24.381 26.631 24.48 26.505 24.552 26.37C24.633 26.235 24.696 26.091 24.741 25.956C24.795 25.812 24.831 25.677 25.002 24.705C25.182 23.733 25.497 21.924 25.722 20.565L25.74 20.52ZM18 0C27.945 0 36 8.055 36 18C36 27.945 27.945 36 18 36C8.055 36 0 27.945 0 18C0 8.055 8.055 0 18 0ZM18 1.98C26.865 1.98 34.047 9.153 34.047 18C34.047 26.847 26.865 34.02 18 34.02C9.135 34.02 1.953 26.847 1.953 18C1.953 9.153 9.135 1.98 18 1.98Z" fill="white"/>
</g>
<defs>
<clipPath id="clip0_1_577">
<rect width="36" height="36" fill="white"/>
</clipPath>
</defs>
</svg>
