<svg width="36" height="36" viewBox="0 0 36 36" fill="none" xmlns="http://www.w3.org/2000/svg">
<g clip-path="url(#clip0_1_575)">
<path fill-rule="evenodd" clip-rule="evenodd" d="M14.409 19.35C13.581 18.396 12.735 16.839 12.249 15.678C12.087 15.282 11.916 14.904 11.772 14.49C11.664 14.175 11.475 13.554 11.277 13.32C10.971 12.96 10.467 13.041 9.909 13.041C9.585 13.041 8.487 13.023 8.253 13.041C7.65 13.095 7.524 13.392 7.632 14.004C7.713 14.463 7.857 14.904 7.992 15.309C8.397 16.47 8.964 17.676 9.567 18.729C9.963 19.422 10.395 20.133 10.845 20.781C11.079 21.114 11.304 21.438 11.538 21.744C12.402 22.851 13.698 24.039 15.228 24.696C16.002 25.029 16.947 25.299 17.964 25.272C18.468 25.263 19.026 25.236 19.305 24.948C19.449 24.795 19.467 24.543 19.467 24.282C19.467 24.003 19.467 23.715 19.467 23.436C19.467 23.067 19.422 22.104 19.539 21.834C19.629 21.627 19.845 21.573 20.133 21.6C20.376 21.618 20.574 21.726 20.754 21.825C21.087 22.014 21.645 22.455 21.915 22.725L22.131 22.932C22.275 23.058 22.428 23.211 22.554 23.355C22.689 23.508 22.815 23.634 22.95 23.778L23.346 24.219C23.562 24.471 23.895 24.849 24.174 25.056C24.579 25.344 25.02 25.281 25.596 25.281C26.118 25.281 26.721 25.308 27.234 25.281C27.765 25.245 28.035 24.912 27.864 24.345C27.684 23.742 26.964 22.851 26.541 22.338L25.155 20.817C25.155 20.817 25.101 20.745 25.056 20.709C24.804 20.466 24.3 19.998 24.246 19.647C24.201 19.332 24.615 18.828 24.804 18.558C25.488 17.541 27.288 14.85 27.486 13.734C27.54 13.437 27.459 13.257 27.261 13.149C27.072 13.041 26.793 13.05 26.541 13.05H25.713C25.299 13.05 24.462 12.996 24.138 13.122C23.724 13.284 23.598 13.662 23.427 14.076C23.301 14.382 23.04 14.913 22.887 15.201C22.437 16.056 22.185 16.497 21.645 17.289C21.42 17.622 21.168 17.937 20.925 18.234C20.754 18.432 20.277 18.9 20.007 18.972C19.413 19.134 19.476 18.36 19.476 17.892V14.544C19.476 14.067 19.557 13.338 19.206 13.14C19.008 13.023 18.729 13.05 18.477 13.05H15.993C15.588 13.05 14.859 12.933 14.787 13.5C14.706 14.112 15.66 14.22 15.66 15.957V17.631C15.66 18.171 15.678 18.765 15.66 19.305C15.651 19.548 15.615 19.827 15.444 19.908C15.156 20.043 14.787 19.746 14.625 19.566C14.562 19.494 14.49 19.431 14.418 19.35H14.409ZM18 0C27.945 0 36 8.055 36 18C36 27.945 27.945 36 18 36C8.055 36 0 27.945 0 18C0 8.055 8.055 0 18 0ZM18 1.98C26.865 1.98 34.047 9.153 34.047 18C34.047 26.847 26.865 34.02 18 34.02C9.135 34.02 1.953 26.847 1.953 18C1.953 9.153 9.135 1.98 18 1.98Z" fill="white"/>
</g>
<defs>
<clipPath id="clip0_1_575">
<rect width="36" height="36" fill="white"/>
</clipPath>
</defs>
</svg>
