<svg width="36" height="36" viewBox="0 0 36 36" fill="none" xmlns="http://www.w3.org/2000/svg">
<g clip-path="url(#clip0_1_579)">
<path fill-rule="evenodd" clip-rule="evenodd" d="M16.32 14.65C16.18 14.33 16.04 13.97 15.94 13.76C15.85 13.55 15.8 13.5 15.76 13.45C15.71 13.4 15.66 13.36 15.51 13.34C15.36 13.32 15.12 13.32 14.96 13.32C14.8 13.32 14.73 13.34 14.63 13.38C14.54 13.43 14.42 13.51 14.3 13.62C14.18 13.73 14.07 13.85 13.96 14C13.85 14.14 13.76 14.3 13.69 14.48C13.62 14.66 13.56 14.85 13.54 15.03C13.51 15.22 13.51 15.4 13.51 15.56C13.51 15.72 13.51 15.86 13.53 16.01C13.55 16.16 13.58 16.32 13.64 16.51C13.7 16.7 13.8 16.91 13.87 17.06C13.94 17.21 14 17.31 14.1 17.48C14.2 17.65 14.35 17.88 14.53 18.15C14.71 18.42 14.93 18.73 15.13 18.99C15.33 19.25 15.51 19.45 15.71 19.66C15.92 19.87 16.15 20.1 16.4 20.32C16.65 20.54 16.93 20.75 17.16 20.92C17.4 21.09 17.6 21.22 17.82 21.34C18.04 21.46 18.28 21.58 18.56 21.7C18.83 21.82 19.14 21.93 19.43 22.04C19.72 22.14 20.01 22.23 20.28 22.27C20.55 22.32 20.8 22.33 21.02 22.31C21.24 22.29 21.41 22.25 21.54 22.21C21.67 22.17 21.74 22.12 21.86 22.07C21.98 22.01 22.13 21.94 22.27 21.85C22.41 21.76 22.52 21.65 22.61 21.55C22.7 21.45 22.76 21.35 22.82 21.24C22.88 21.12 22.93 20.98 22.97 20.87C23.01 20.75 23.03 20.66 23.04 20.53C23.06 20.41 23.07 20.26 23.07 20.17C23.07 20.08 23.06 20.05 22.95 19.98C22.84 19.91 22.65 19.8 22.31 19.63C21.97 19.46 21.5 19.22 21.22 19.1C20.94 18.97 20.86 18.95 20.79 18.94C20.72 18.93 20.67 18.93 20.62 18.95C20.57 18.97 20.51 19.01 20.45 19.08C20.39 19.15 20.31 19.25 20.21 19.39C20.1 19.53 19.97 19.73 19.87 19.85C19.77 19.97 19.71 20.03 19.64 20.06C19.57 20.09 19.5 20.1 19.42 20.11C19.34 20.12 19.27 20.11 19.13 20.06C18.99 20.01 18.78 19.9 18.57 19.79C18.36 19.68 18.17 19.56 17.98 19.44C17.79 19.32 17.61 19.19 17.42 19.02C17.23 18.85 17.02 18.64 16.85 18.45C16.69 18.26 16.57 18.1 16.45 17.94C16.33 17.78 16.2 17.62 16.11 17.49C16.02 17.36 15.97 17.25 15.94 17.17C15.91 17.09 15.91 17.04 15.92 16.99C15.92 16.94 15.94 16.9 16.01 16.79C16.08 16.68 16.24 16.51 16.36 16.37C16.48 16.23 16.58 16.11 16.63 16.01C16.68 15.91 16.69 15.84 16.7 15.76C16.7 15.69 16.7 15.61 16.64 15.43C16.58 15.25 16.45 14.98 16.31 14.66L16.32 14.65ZM18 0C27.94 0 36 8.06 36 18C36 27.94 27.94 36 18 36C8.06 36 0 27.94 0 18C0 8.06 8.06 0 18 0ZM18 1.98C26.86 1.98 34.05 9.15 34.05 18C34.05 26.85 26.87 34.02 18 34.02C9.13 34.02 1.95 26.85 1.95 18C1.95 9.15 9.14 1.98 18 1.98ZM27.78 17.74C27.78 12.36 23.48 8 18.17 8C12.86 8 8.56 12.36 8.56 17.74C8.56 19.6 9.07 21.33 9.96 22.81L8.21 28.01L13.52 26.27C14.9 27.04 16.48 27.48 18.16 27.48C23.47 27.48 27.77 23.12 27.77 17.74H27.78Z" fill="white"/>
</g>
<defs>
<clipPath id="clip0_1_579">
<rect width="36" height="36" fill="white"/>
</clipPath>
</defs>
</svg>
